<?xml version="1.0" encoding="UTF-8"?>
<svg width="512" height="512" viewBox="0 0 512 512" xmlns="http://www.w3.org/2000/svg">
  <defs>
    <linearGradient id="clockGradient" x1="0%" y1="0%" x2="100%" y2="100%">
      <stop offset="0%" style="stop-color:#57bdaf;stop-opacity:1" />
      <stop offset="100%" style="stop-color:#56b372;stop-opacity:1" />
    </linearGradient>
    <linearGradient id="handGradient" x1="0%" y1="0%" x2="100%" y2="100%">
      <stop offset="0%" style="stop-color:#2c3e50;stop-opacity:1" />
      <stop offset="100%" style="stop-color:#34495e;stop-opacity:1" />
    </linearGradient>
  </defs>
  
  <!-- Background circle -->
  <circle cx="256" cy="256" r="240" fill="url(#clockGradient)" stroke="#2c3e50" stroke-width="6"/>
  
  <!-- Clock face -->
  <circle cx="256" cy="256" r="180" fill="#ffffff" stroke="#2c3e50" stroke-width="4"/>
  
  <!-- Hour markers -->
  <g stroke="#2c3e50" stroke-width="4" stroke-linecap="round">
    <line x1="256" y1="96" x2="256" y2="120" />
    <line x1="416" y1="256" x2="392" y2="256" />
    <line x1="256" y1="416" x2="256" y2="392" />
    <line x1="96" y1="256" x2="120" y2="256" />
    
    <!-- Additional hour markers -->
    <line x1="343.84" y1="132.16" x2="326.67" y2="149.33" />
    <line x1="379.84" y1="379.84" x2="362.67" y2="362.67" />
    <line x1="132.16" y1="379.84" x2="149.33" y2="362.67" />
    <line x1="132.16" y1="132.16" x2="149.33" y2="149.33" />
  </g>
  
  <!-- Clock hands -->
  <g fill="url(#handGradient)">
    <!-- Hour hand pointing to 10 -->
    <polygon points="256,256 246,266 200,220 210,210" />
    <!-- Minute hand pointing to 2 -->
    <polygon points="256,256 266,246 330,180 340,190" />
  </g>
  
  <!-- Center dot -->
  <circle cx="256" cy="256" r="12" fill="#2c3e50"/>
  
  <!-- Task/productivity indicators around the clock -->
  <g fill="#59c964" opacity="0.8">
    <circle cx="320" cy="120" r="8" />
    <circle cx="420" cy="200" r="8" />
    <circle cx="400" cy="320" r="8" />
    <circle cx="300" cy="400" r="8" />
  </g>
</svg>