<?xml version="1.0" encoding="UTF-8" standalone="no"?>
<!-- Created with Inkscape (http://www.inkscape.org/) -->

<svg
   width="144.81805mm"
   height="143.3432mm"
   viewBox="0 0 144.81805 143.3432"
   version="1.1"
   id="svg1"
   xml:space="preserve"
   xmlns:inkscape="http://www.inkscape.org/namespaces/inkscape"
   xmlns:sodipodi="http://sodipodi.sourceforge.net/DTD/sodipodi-0.dtd"
   xmlns="http://www.w3.org/2000/svg"
   xmlns:svg="http://www.w3.org/2000/svg"><sodipodi:namedview
     id="namedview1"
     pagecolor="#ffffff"
     bordercolor="#666666"
     borderopacity="1.0"
     inkscape:showpageshadow="2"
     inkscape:pageopacity="1.0"
     inkscape:pagecheckerboard="1"
     inkscape:deskcolor="#d1d1d1"
     inkscape:document-units="mm"><inkscape:page
       x="0"
       y="0"
       width="144.81805"
       height="143.3432"
       id="page2"
       margin="0"
       bleed="0" /></sodipodi:namedview><defs
     id="defs1" /><g
     inkscape:label="Warstwa 1"
     inkscape:groupmode="layer"
     id="layer1"
     transform="translate(-20.450831,-29.460084)"><rect
       style="fill:#57bdaf;fill-opacity:1;stroke:none;stroke-width:0.0981137;stroke-dasharray:none"
       id="rect4099"
       width="144.81805"
       height="143.3432"
       x="20.45083"
       y="29.460081"
       ry="31.617708" /><path
       id="rect4100"
       style="fill:#026c6c;fill-opacity:1;stroke:none;stroke-width:0.1;stroke-dasharray:none"
       d="m 82.153125,43.788541 c -2.638425,0 -4.7625,2.419084 -4.7625,5.423959 v 0.661458 c 0,3.004874 2.124075,5.423958 4.7625,5.423958 h 3.307292 v 5.057056 A 48.286457,47.228127 0 0 0 44.582292,107.02395 48.286457,47.228127 0 0 0 92.86875,154.25208 48.286457,47.228127 0 0 0 141.15521,107.02395 48.286457,47.228127 0 0 0 130.39049,77.297607 l 1.35806,-1.239718 c 0.0946,-0.08639 0.18578,-0.173939 0.2744,-0.263033 1.58686,1.043645 3.28843,1.228009 4.20026,0.330213 l 1.9327,-1.903243 c 1.15444,-1.136683 0.59332,-3.565089 -1.25781,-5.445146 l -5.49372,-5.580021 c -1.85113,-1.880056 -4.27106,-2.478203 -5.42551,-1.34152 l -1.93269,1.903243 c -1.03642,1.020465 -0.69031,3.082182 0.7307,4.85345 l -1.70894,1.560629 A 48.286457,47.228127 0 0 0 100.0125,60.315698 v -5.017782 h 3.175 c 2.63842,0 4.7625,-2.419084 4.7625,-5.423958 V 49.2125 c 0,-3.004875 -2.12408,-5.423959 -4.7625,-5.423959 z" /><ellipse
       style="fill:#e0fef6;fill-opacity:1;stroke:none;stroke-width:0.254006;stroke-dasharray:none"
       id="path4103"
       cx="92.73645"
       cy="107.61928"
       rx="40.216663"
       ry="39.753647" /><path
       style="fill:#25b387;fill-opacity:1;stroke:none;stroke-width:0.264583px;stroke-linecap:butt;stroke-linejoin:miter;stroke-opacity:1"
       d="M 86.915624,110.33125 111.52187,85.328124 c 1.45236,-1.397861 4.8176,-1.106656 6.56538,0.713989 1.5402,1.604399 1.25012,5.132581 0.1815,6.29747 L 90.042852,122.5987 c -1.906612,1.57546 -3.987792,1.57979 -6.247181,-0.0197 L 67.336457,106.2302 c -1.452555,-1.79839 -1.681103,-4.41527 0.170535,-6.710536 1.830037,-1.897796 4.768288,-2.91184 6.57634,-1.49154 z"
       id="path4104"
       sodipodi:nodetypes="ccsccccccc" /></g></svg>
